<?xml version="1.0" encoding="UTF-8"?> <svg xmlns="http://www.w3.org/2000/svg" xmlns:xlink="http://www.w3.org/1999/xlink" version="1.1" id="_x3C_warstwa_x3E_" x="0px" y="0px" viewBox="0 0 200 57.28" style="enable-background:new 0 0 200 57.28;" xml:space="preserve"> <style type="text/css"> .st0{fill:#FFFFFF;} </style> <g> <path class="st0" d="M12.35,39.36c-0.98,0-1.87-0.27-2.66-0.8c-0.79-0.54-1.42-1.26-1.89-2.19c-0.47-0.92-0.7-1.97-0.7-3.15 c0-1.21,0.23-2.27,0.7-3.18c0.47-0.92,1.11-1.63,1.92-2.16c0.81-0.52,1.73-0.78,2.76-0.78c0.83,0,1.56,0.17,2.19,0.5 c0.63,0.34,1.12,0.77,1.5,1.31v-1.56h3.04v11.79h-3.06v-1.59c-0.42,0.52-0.96,0.95-1.62,1.3C13.87,39.19,13.14,39.36,12.35,39.36 M13.18,36.7c0.91,0,1.64-0.32,2.21-0.96c0.57-0.64,0.85-1.48,0.85-2.52c0-1.04-0.28-1.88-0.85-2.52c-0.57-0.64-1.3-0.96-2.21-0.96 c-0.89,0-1.62,0.32-2.18,0.96c-0.56,0.64-0.84,1.48-0.84,2.52c0,1.04,0.28,1.88,0.84,2.52C11.56,36.38,12.28,36.7,13.18,36.7"></path> <rect x="21.86" y="22.61" class="st0" width="3.04" height="16.53"></rect> <polygon class="st0" points="28.67,39.14 28.67,30.09 26.43,30.09 26.43,27.34 28.67,27.34 28.67,24.33 31.7,24.33 31.7,27.34 34.18,27.34 34.18,30.09 31.7,30.09 31.7,39.14 "></polygon> <path class="st0" d="M92.97,39.36c-0.98,0-1.87-0.27-2.66-0.8c-0.79-0.54-1.42-1.26-1.89-2.19c-0.47-0.92-0.7-1.97-0.7-3.15 c0-1.21,0.23-2.27,0.7-3.18c0.47-0.92,1.11-1.63,1.92-2.16c0.81-0.52,1.73-0.78,2.76-0.78c0.83,0,1.56,0.17,2.19,0.5 c0.63,0.34,1.12,0.77,1.5,1.31v-1.56h3.04v11.79h-3.06v-1.59c-0.42,0.52-0.96,0.95-1.62,1.3C94.48,39.19,93.76,39.36,92.97,39.36 M93.79,36.7c0.91,0,1.64-0.32,2.21-0.96c0.57-0.64,0.85-1.48,0.85-2.52c0-1.04-0.28-1.88-0.85-2.52c-0.57-0.64-1.3-0.96-2.21-0.96 c-0.89,0-1.62,0.32-2.18,0.96c-0.56,0.64-0.84,1.48-0.84,2.52c0,1.04,0.28,1.88,0.84,2.52C92.17,36.38,92.9,36.7,93.79,36.7"></path> <polygon class="st0" points="102.49,39.14 102.49,22.61 105.53,22.61 105.53,31.99 110.13,27.34 114.15,27.34 108.67,32.48 114.15,39.14 110.46,39.14 106.64,34.38 105.53,35.43 105.53,39.14 "></polygon> <path class="st0" d="M119.27,39.36c-0.98,0-1.87-0.27-2.66-0.8c-0.79-0.54-1.42-1.26-1.89-2.19c-0.47-0.92-0.7-1.97-0.7-3.15 c0-1.21,0.23-2.27,0.7-3.18c0.47-0.92,1.11-1.63,1.92-2.16c0.81-0.52,1.73-0.78,2.76-0.78c0.83,0,1.56,0.17,2.19,0.5 c0.63,0.34,1.12,0.77,1.5,1.31v-1.56h3.04v11.79h-3.06v-1.59c-0.42,0.52-0.96,0.95-1.62,1.3 C120.78,39.19,120.06,39.36,119.27,39.36 M120.09,36.7c0.91,0,1.65-0.32,2.21-0.96c0.57-0.64,0.85-1.48,0.85-2.52 c0-1.04-0.28-1.88-0.85-2.52c-0.57-0.64-1.3-0.96-2.21-0.96c-0.89,0-1.62,0.32-2.18,0.96c-0.56,0.64-0.84,1.48-0.84,2.52 c0,1.04,0.28,1.88,0.84,2.52C118.48,36.38,119.2,36.7,120.09,36.7"></path> <path class="st0" d="M133.54,39.36c-1.04,0-1.97-0.26-2.79-0.79c-0.82-0.53-1.46-1.25-1.93-2.18c-0.47-0.92-0.7-1.97-0.7-3.15 c0-1.19,0.23-2.25,0.7-3.17c0.47-0.92,1.11-1.65,1.93-2.18c0.82-0.53,1.75-0.79,2.79-0.79c0.71,0,1.4,0.14,2.04,0.42 c0.65,0.28,1.17,0.65,1.57,1.09v-6.01h3.06v16.53h-2.9l-0.04-1.41c-0.39,0.46-0.92,0.85-1.59,1.16 C135.01,39.2,134.3,39.36,133.54,39.36 M134.21,36.81c0.91,0,1.64-0.33,2.21-0.99c0.57-0.66,0.85-1.52,0.85-2.58 c0-1.07-0.28-1.94-0.85-2.6c-0.57-0.66-1.3-0.99-2.21-0.99c-0.91,0-1.65,0.33-2.21,0.99c-0.57,0.66-0.85,1.53-0.85,2.6 c0,1.06,0.28,1.92,0.85,2.58C132.56,36.48,133.3,36.81,134.21,36.81"></path> <path class="st0" d="M148.52,39.36c-1.27,0-2.37-0.26-3.33-0.78c-0.95-0.52-1.69-1.24-2.22-2.14c-0.53-0.91-0.79-1.95-0.79-3.13 c0-1.22,0.26-2.3,0.77-3.23c0.51-0.93,1.22-1.66,2.12-2.2c0.9-0.54,1.94-0.8,3.12-0.8c1.06,0,2.01,0.26,2.85,0.77 c0.84,0.51,1.5,1.21,1.97,2.09c0.47,0.88,0.69,1.88,0.66,3.02l-0.02,0.96h-8.49c0.16,0.85,0.57,1.52,1.22,2.01 c0.65,0.49,1.47,0.74,2.47,0.74c0.54,0,1.02-0.08,1.46-0.25c0.44-0.16,0.91-0.45,1.42-0.87l1.47,2.05c-0.64,0.57-1.37,1-2.2,1.31 C150.16,39.21,149.34,39.36,148.52,39.36 M148.21,29.71c-1.68,0-2.69,0.76-3.04,2.28h5.58V31.9c-0.04-0.64-0.31-1.16-0.79-1.57 C149.48,29.92,148.89,29.71,148.21,29.71"></path> <path class="st0" d="M155.6,39.14V27.34h2.95l0.04,1.68c0.42-0.57,0.94-1.02,1.56-1.37c0.63-0.35,1.28-0.53,1.97-0.53 c0.85,0,1.56,0.18,2.12,0.55c0.57,0.36,1.03,0.94,1.38,1.73c0.43-0.7,1.02-1.25,1.75-1.66c0.74-0.41,1.5-0.61,2.29-0.61 c2.69,0,4.04,1.62,4.04,4.87v7.15h-3.06v-6.92c0-1.64-0.67-2.46-2.01-2.46c-0.71,0-1.31,0.22-1.78,0.67c-0.47,0.45-0.7,1-0.7,1.67 v7.03h-3.06v-6.97c0-0.77-0.17-1.37-0.51-1.79c-0.34-0.42-0.83-0.63-1.47-0.63c-0.7,0-1.28,0.22-1.75,0.67 c-0.47,0.45-0.7,0.99-0.7,1.63v7.08H155.6z"></path> <path class="st0" d="M177.9,24.89c-0.6,0-1.06-0.15-1.4-0.45c-0.33-0.3-0.5-0.71-0.5-1.23c0-0.51,0.17-0.92,0.5-1.23 c0.34-0.31,0.8-0.47,1.4-0.47c0.6,0,1.06,0.15,1.38,0.45c0.33,0.3,0.49,0.71,0.49,1.25c0,0.49-0.17,0.89-0.5,1.21 C178.94,24.73,178.48,24.89,177.9,24.89 M176.38,27.34h3.06v11.79h-3.06V27.34z"></path> <path class="st0" d="M186.72,39.36c-0.98,0-1.87-0.27-2.66-0.8c-0.79-0.54-1.42-1.26-1.89-2.19c-0.47-0.92-0.7-1.97-0.7-3.15 c0-1.21,0.23-2.27,0.7-3.18c0.47-0.92,1.11-1.63,1.92-2.16c0.81-0.52,1.73-0.78,2.76-0.78c0.83,0,1.56,0.17,2.19,0.5 c0.63,0.34,1.12,0.77,1.5,1.31v-1.56h3.04v11.79h-3.06v-1.59c-0.42,0.52-0.96,0.95-1.62,1.3 C188.24,39.19,187.51,39.36,186.72,39.36 M187.55,36.7c0.91,0,1.64-0.32,2.21-0.96c0.57-0.64,0.85-1.48,0.85-2.52 c0-1.04-0.28-1.88-0.85-2.52c-0.57-0.64-1.3-0.96-2.21-0.96c-0.89,0-1.62,0.32-2.18,0.96c-0.56,0.64-0.84,1.48-0.84,2.52 c0,1.04,0.28,1.88,0.84,2.52C185.93,36.38,186.66,36.7,187.55,36.7"></path> <path class="st0" d="M54.84,30.2c-0.48-0.3-1.01-0.45-1.61-0.45c-0.61,0-1.15,0.15-1.63,0.45c-0.48,0.3-0.85,0.71-1.12,1.23 c-0.27,0.52-0.4,1.12-0.4,1.79s0.13,1.27,0.4,1.79c0.27,0.52,0.64,0.93,1.12,1.24c0.48,0.31,1.02,0.46,1.63,0.46 c0.6,0,1.13-0.15,1.61-0.46c0.48-0.3,0.84-0.72,1.11-1.24c0.26-0.52,0.39-1.12,0.39-1.79s-0.13-1.27-0.39-1.79 C55.69,30.91,55.32,30.5,54.84,30.2"></path> <path class="st0" d="M64.32,27.34l0.04,1.68c0.42-0.57,0.94-1.02,1.56-1.37c0.63-0.35,1.28-0.52,1.97-0.52 c0.85,0,1.56,0.18,2.12,0.55c0.57,0.36,1.03,0.94,1.38,1.73c0.43-0.7,1.02-1.25,1.75-1.66c0.74-0.41,1.5-0.61,2.29-0.61 c2.69,0,4.04,1.62,4.04,4.87V6.18H35.54v16.48h3.04v9.33l4.6-4.65h4.02l-5.47,5.14l5.47,6.66h-3.68l-3.82-4.76l-1.12,1.05v3.71 h-3.04v10.98h43.94V39.14h-3.06v-6.92c0-1.64-0.67-2.46-2.01-2.46c-0.71,0-1.31,0.22-1.78,0.67c-0.47,0.45-0.7,1.01-0.7,1.67v7.03 h-3.06v-6.97c0-0.77-0.17-1.37-0.51-1.79c-0.34-0.42-0.83-0.63-1.47-0.63c-0.7,0-1.28,0.22-1.75,0.67c-0.47,0.45-0.7,0.99-0.7,1.63 v7.08h-3.06V27.34H64.32z M58.62,36.39c-0.54,0.92-1.27,1.65-2.21,2.18c-0.94,0.53-2,0.79-3.17,0.79c-1.21,0-2.28-0.26-3.22-0.79 c-0.94-0.53-1.68-1.25-2.21-2.18c-0.54-0.92-0.8-1.98-0.8-3.17c0-1.18,0.27-2.23,0.8-3.15c0.54-0.92,1.27-1.65,2.21-2.18 c0.94-0.53,2.01-0.79,3.22-0.79c1.18,0,2.23,0.26,3.17,0.79c0.94,0.53,1.67,1.25,2.21,2.18c0.54,0.92,0.8,1.97,0.8,3.15 C59.42,34.41,59.15,35.47,58.62,36.39"></path> </g> </svg> 