<?xml version="1.0" encoding="UTF-8"?> <svg xmlns="http://www.w3.org/2000/svg" xmlns:xlink="http://www.w3.org/1999/xlink" version="1.1" id="_x3C_warstwa_x3E_" x="0px" y="0px" viewBox="0 0 200 57.28" style="enable-background:new 0 0 200 57.28;" xml:space="preserve"> <style type="text/css"> .st0{fill:#FFFFFF;} </style> <g> <g> <path class="st0" d="M79.24,24.53c-0.87-0.49-1.87-0.74-3-0.74c-1.82,0-3.24,0.54-4.25,1.61c-1.01,1.07-1.51,2.57-1.51,4.5 c0,1.24,0.23,2.32,0.7,3.25c0.47,0.93,1.13,1.65,2,2.14c0.87,0.5,1.87,0.74,3,0.74c1.81,0,3.22-0.54,4.24-1.63 c1.01-1.09,1.52-2.59,1.52-4.51c0-1.24-0.23-2.32-0.69-3.25C80.77,25.74,80.11,25.03,79.24,24.53 M78.07,32.56 c-0.37,0.59-0.99,0.89-1.86,0.89c-0.86,0-1.49-0.3-1.87-0.9c-0.38-0.6-0.58-1.48-0.58-2.65c0-1.18,0.19-2.06,0.57-2.64 c0.38-0.58,1-0.87,1.86-0.87c0.87,0,1.49,0.29,1.87,0.88c0.38,0.59,0.57,1.46,0.57,2.63C78.63,31.08,78.45,31.97,78.07,32.56"></path> <path class="st0" d="M102.37,23.79c-0.8,0-1.52,0.15-2.15,0.44c-0.63,0.29-1.13,0.73-1.48,1.3h-0.18l-0.43-1.51h-2.46v11.81h3.23 v-5.56c0-1.39,0.2-2.39,0.6-2.99c0.4-0.6,1.05-0.9,1.95-0.9c0.66,0,1.15,0.21,1.45,0.64c0.3,0.43,0.46,1.07,0.46,1.92v6.9h3.22 v-7.7c0-1.4-0.35-2.48-1.07-3.22C104.79,24.17,103.75,23.79,102.37,23.79"></path> <path class="st0" d="M116.3,24.53c-0.87-0.49-1.87-0.74-3-0.74c-1.82,0-3.24,0.54-4.25,1.61c-1.01,1.07-1.51,2.57-1.51,4.5 c0,1.24,0.23,2.32,0.7,3.25c0.47,0.93,1.13,1.65,2,2.14c0.87,0.5,1.87,0.74,3,0.74c1.81,0,3.22-0.54,4.24-1.63 c1.02-1.09,1.52-2.59,1.52-4.51c0-1.24-0.23-2.32-0.7-3.25C117.83,25.74,117.16,25.03,116.3,24.53 M115.13,32.56 c-0.38,0.59-1,0.89-1.85,0.89c-0.87,0-1.49-0.3-1.88-0.9c-0.39-0.6-0.58-1.48-0.58-2.65c0-1.18,0.19-2.06,0.57-2.64 c0.38-0.58,1-0.87,1.86-0.87c0.86,0,1.49,0.29,1.87,0.88c0.38,0.59,0.57,1.46,0.57,2.63C115.7,31.08,115.51,31.97,115.13,32.56"></path> <path class="st0" d="M127.42,29.69c-0.43-0.33-1.1-0.67-2.03-1.04c-1.03-0.42-1.7-0.73-2.01-0.95c-0.31-0.21-0.46-0.46-0.46-0.75 c0-0.51,0.48-0.77,1.42-0.77c0.54,0,1.06,0.08,1.58,0.24c0.51,0.16,1.07,0.37,1.66,0.62l0.97-2.32c-1.35-0.62-2.73-0.93-4.15-0.93 c-1.49,0-2.65,0.29-3.46,0.86c-0.81,0.57-1.22,1.39-1.22,2.44c0,0.61,0.1,1.13,0.29,1.55c0.19,0.42,0.5,0.79,0.93,1.11 c0.43,0.33,1.1,0.68,2,1.06c0.64,0.27,1.14,0.5,1.52,0.7c0.38,0.21,0.65,0.38,0.8,0.54c0.16,0.16,0.23,0.37,0.23,0.62 c0,0.67-0.58,1.02-1.76,1.02c-0.57,0-1.23-0.1-1.98-0.29c-0.75-0.19-1.42-0.43-2.02-0.71v2.66c0.53,0.23,1.09,0.4,1.7,0.51 c0.61,0.12,1.33,0.17,2.2,0.17c1.68,0,2.94-0.32,3.78-0.95c0.84-0.64,1.26-1.56,1.26-2.77c0-0.58-0.1-1.09-0.31-1.51 C128.17,30.39,127.85,30.01,127.42,29.69"></path> <path class="st0" d="M95.12,24.03H94.5c-0.48,0-1.26,0.03-1.85,0.1c-0.53,0.06-1.09,0.17-1.67,0.33c-0.19-0.08-0.4-0.16-0.59-0.22 c-0.21-0.08-0.44-0.15-0.66-0.21c-0.22-0.06-0.45-0.1-0.72-0.13c-0.26-0.03-0.54-0.04-0.85-0.04c-0.73,0-1.41,0.08-2.02,0.25 c-0.63,0.18-1.18,0.44-1.63,0.78c-0.47,0.35-0.84,0.78-1.1,1.28c-0.26,0.51-0.4,1.09-0.4,1.75c0,0.38,0.03,0.71,0.09,1 c0.06,0.31,0.17,0.61,0.31,0.89c0.15,0.28,0.34,0.53,0.55,0.76c0.08,0.09,0.16,0.17,0.25,0.25c-0.06,0.03-0.12,0.06-0.18,0.1 c-0.26,0.15-0.49,0.32-0.68,0.5c-0.2,0.18-0.36,0.4-0.48,0.67c-0.12,0.26-0.18,0.53-0.18,0.81c0,0.4,0.09,0.76,0.27,1.05 c0.17,0.26,0.37,0.48,0.61,0.66c0.17,0.13,0.36,0.25,0.55,0.35c-0.06,0.04-0.12,0.07-0.18,0.11c-0.3,0.18-0.56,0.4-0.8,0.65 c-0.24,0.24-0.43,0.53-0.59,0.86c-0.16,0.33-0.23,0.71-0.23,1.13c0,0.41,0.12,0.78,0.35,1.12c0.22,0.32,0.57,0.59,1.01,0.8 c0.41,0.21,0.93,0.36,1.59,0.48c0.62,0.11,1.36,0.16,2.19,0.16c0.46,0,0.94-0.02,1.42-0.05c0.5-0.04,0.98-0.1,1.46-0.2 c0.48-0.1,0.94-0.23,1.38-0.4c0.46-0.18,0.87-0.42,1.2-0.7c0.35-0.29,0.64-0.65,0.85-1.06c0.21-0.42,0.32-0.92,0.32-1.47 c0-0.44-0.09-0.82-0.25-1.13c-0.17-0.32-0.4-0.6-0.69-0.82c-0.28-0.22-0.6-0.4-0.96-0.54c-0.35-0.13-0.71-0.24-1.08-0.33 c-0.37-0.09-0.76-0.17-1.16-0.23c-0.36-0.05-0.71-0.11-1.06-0.17l-0.06-0.01c-0.12-0.02-0.25-0.04-0.39-0.06l-0.32-0.05 c-0.23-0.04-0.46-0.08-0.7-0.12l-0.06-0.01c-0.3-0.06-0.53-0.11-0.74-0.17c-0.23-0.06-0.43-0.12-0.6-0.18 c-0.16-0.06-0.29-0.13-0.38-0.19c0.01-0.09,0.04-0.17,0.1-0.25c0.04-0.06,0.09-0.12,0.14-0.17c0.25,0.09,0.54,0.16,0.86,0.22 c0.42,0.08,0.96,0.13,1.63,0.13c0.49,0,0.99-0.09,1.52-0.27c0.52-0.18,1.01-0.44,1.45-0.78c0.45-0.35,0.82-0.78,1.1-1.27 c0.29-0.51,0.44-1.11,0.44-1.75c0-0.57-0.07-1.04-0.23-1.46c-0.02-0.06-0.05-0.13-0.07-0.19l1.27,0.19L95.12,24.03z M85.67,36.95 c0-0.12,0.01-0.24,0.03-0.35c0.03-0.13,0.06-0.25,0.11-0.36c0.06-0.13,0.12-0.25,0.2-0.35c0.05-0.07,0.1-0.13,0.17-0.19 c0.33,0.04,0.66,0.08,1,0.13c0.4,0.06,0.88,0.15,1.47,0.26c0.38,0.08,0.7,0.15,0.98,0.21c0.29,0.07,0.53,0.14,0.73,0.22 c0.18,0.07,0.31,0.15,0.4,0.23c0.06,0.06,0.06,0.09,0.06,0.11c0,0.17-0.04,0.32-0.12,0.47c-0.08,0.14-0.22,0.27-0.43,0.39 c-0.24,0.13-0.56,0.24-0.97,0.32c-0.41,0.08-0.95,0.13-1.59,0.13c-0.27,0-0.54-0.04-0.79-0.12c-0.25-0.08-0.49-0.19-0.68-0.31 c-0.19-0.13-0.34-0.27-0.46-0.43C85.71,37.18,85.67,37.07,85.67,36.95 M89.37,28.8c-0.03,0.24-0.09,0.45-0.2,0.63 c-0.09,0.16-0.21,0.29-0.38,0.39c-0.17,0.1-0.43,0.15-0.73,0.15c-0.31,0-0.58-0.05-0.78-0.17c-0.21-0.11-0.38-0.25-0.51-0.43 c-0.14-0.19-0.24-0.41-0.3-0.66c-0.07-0.27-0.1-0.56-0.1-0.86c0-0.58,0.14-1.02,0.41-1.29c0.27-0.27,0.63-0.41,1.08-0.41 c0.53,0,0.92,0.13,1.18,0.4c0.26,0.26,0.39,0.73,0.39,1.38C89.43,28.24,89.41,28.53,89.37,28.8"></path> <path class="st0" d="M66.54,23.19c1.29,0,2.25,0.3,2.83,0.55l0.11,0.05l0.77-2.88l-0.07-0.04c-0.6-0.32-1.95-0.69-3.77-0.69 c-5,0-8.35,3.26-8.35,8.11c0,4.75,3.07,7.7,8.01,7.7c1.75,0,3.22-0.33,3.9-0.66l0.07-0.03l-0.53-2.89l-0.12,0.05 c-0.71,0.29-1.82,0.48-2.83,0.48c-2.95,0-4.72-1.8-4.72-4.83C61.85,25.07,63.65,23.19,66.54,23.19"></path> <polygon class="st0" points="191.18,20.34 192.21,20.34 192.21,23.28 192.42,23.28 192.42,20.34 193.45,20.34 193.45,20.13 191.18,20.13 "></polygon> <path class="st0" d="M196.35,20.13l-1.12,2.78h-0.01l-1.12-2.78h-0.34v3.15h0.21v-2.37c0-0.19-0.01-0.37-0.02-0.55h0.02l1.17,2.91 h0.14l1.18-2.91h0.02c-0.02,0.18-0.03,0.35-0.03,0.52v2.39h0.22v-3.15H196.35z"></path> <path class="st0" d="M137.48,36.04c2.37,0,4.2-0.69,5.46-2.06c1.27-1.38,1.91-3.35,1.91-5.91c0-2.57-0.63-4.54-1.89-5.91 c-1.26-1.37-3.08-2.05-5.46-2.05c-2.38,0-4.21,0.68-5.48,2.04c-1.27,1.36-1.91,3.33-1.91,5.9c0,2.58,0.63,4.56,1.9,5.93 C133.28,35.35,135.1,36.04,137.48,36.04 M134.54,24.15c0.66-0.88,1.65-1.32,2.96-1.32c2.6,0,3.91,1.75,3.91,5.23 c0,3.48-1.31,5.22-3.93,5.22c-1.31,0-2.29-0.44-2.94-1.31c-0.66-0.88-0.99-2.18-0.99-3.91C133.55,26.34,133.88,25.03,134.54,24.15 "></path> <path class="st0" d="M153.26,26.99c0.3,0.42,0.45,1.07,0.45,1.92v6.92h3.23v-7.72c0-1.4-0.36-2.48-1.07-3.22 c-0.71-0.74-1.76-1.12-3.14-1.12c-0.81,0-1.52,0.14-2.15,0.44c-0.64,0.29-1.13,0.72-1.49,1.29h-0.18l-0.43-1.51h-2.47v11.84h3.23 v-5.57c0-1.4,0.2-2.4,0.61-3c0.4-0.61,1.05-0.91,1.96-0.91C152.48,26.35,152.96,26.57,153.26,26.99"></path> <rect x="158.67" y="16.59" class="st0" width="3.23" height="19.24"></rect> <path class="st0" d="M165.65,19.35c-1.17,0-1.76,0.53-1.76,1.58c0,1.06,0.59,1.58,1.76,1.58c0.59,0,1.02-0.14,1.32-0.42 c0.29-0.28,0.44-0.67,0.44-1.17C167.4,19.88,166.82,19.35,165.65,19.35"></path> <rect x="164.03" y="23.99" class="st0" width="3.23" height="11.84"></rect> <path class="st0" d="M176.48,26.99c0.3,0.42,0.45,1.07,0.45,1.92v6.92h3.23v-7.72c0-1.4-0.36-2.48-1.07-3.22 c-0.72-0.74-1.76-1.12-3.14-1.12c-0.8,0-1.53,0.14-2.16,0.44c-0.63,0.29-1.13,0.72-1.49,1.29h-0.18l-0.43-1.51h-2.47v11.84h3.23 v-5.57c0-1.4,0.2-2.4,0.6-3c0.4-0.61,1.06-0.91,1.96-0.91C175.69,26.35,176.18,26.57,176.48,26.99"></path> <path class="st0" d="M186.76,23.77c-1.75,0-3.12,0.54-4.12,1.62c-0.99,1.08-1.49,2.62-1.49,4.6c0,1.93,0.54,3.42,1.61,4.47 c1.07,1.05,2.56,1.58,4.47,1.58c0.92,0,1.71-0.07,2.35-0.21c0.64-0.14,1.25-0.35,1.81-0.63v-2.5c-0.69,0.33-1.35,0.56-1.99,0.71 c-0.64,0.15-1.31,0.22-2.02,0.22c-0.92,0-1.63-0.26-2.14-0.77c-0.51-0.52-0.78-1.23-0.82-2.15h7.63v-1.57c0-1.68-0.46-3-1.4-3.95 C189.73,24.24,188.43,23.77,186.76,23.77 M184.5,28.57c0.06-0.8,0.28-1.42,0.67-1.85c0.39-0.43,0.93-0.65,1.61-0.65 c0.69,0,1.23,0.22,1.63,0.65c0.4,0.43,0.61,1.05,0.63,1.85H184.5z"></path> <path class="st0" d="M11.69,12.88c-0.54,0-0.97,0.44-0.97,0.97v1.54c0,0.54,0.44,0.97,0.97,0.97H14c0.54,0,0.97-0.44,0.97-0.97 v-1.54c0-0.54-0.44-0.97-0.97-0.97H11.69z M23.75,6.67h-1h-0.55h-0.09h-0.07h-0.74h-0.53c-0.54,0-0.97,0.44-0.97,0.97v1.54 c0,0.54,0.44,0.97,0.97,0.97h0.53h0.74h0.07h0.09h0.55h0.21h0.79h2.03h1.15c0,0,0.02,0,0.04,0h0.05h0.29 c0.18,0,0.33,0.15,0.33,0.32v2.07c0,0.18-0.15,0.33-0.33,0.33h-0.36c-0.04,0-0.07,0-0.11,0h-0.07h-0.99c0,0-0.01,0-0.01,0l-6.35,0 c0,0,0,0-0.01,0h-0.13h0h-0.91h-0.09h-0.08h0h-0.57h-0.36c-0.54,0-0.97,0.44-0.97,0.97v1.54c0,0.54,0.44,0.97,0.97,0.97h0.36h0.58 h0h0.16h0.01h0.9h0.13h15.53c0,0,0.11-0.03,0.05-0.17c-0.06-0.14-2.01-4.96-6-9.41c-0.06-0.07-0.15-0.11-0.25-0.11H23.75z M31.5,6.58c0,0,3.68,3.68,6.13,9.48l0.08,0.18c0,0,0.02,0.12,0.15,0.12h7.17c0,0,0.14-0.03,0.05-0.16 C45,16.07,40.76,9.12,31.55,6.5c0,0,0,0-0.01,0C31.51,6.5,31.44,6.51,31.5,6.58"></path> <path class="st0" d="M4.45,24.91c-0.54,0-0.97,0.44-0.97,0.97v1.52c0,0.54,0.44,0.97,0.97,0.97h2.73c0.54,0,0.97-0.44,0.97-0.97 v-1.52c0-0.54-0.44-0.97-0.97-0.97H4.45z M10.51,24.91c-0.54,0-0.97,0.44-0.97,0.97v1.52c0,0.54,0.44,0.97,0.97,0.97h6.15 c0.54,0,0.97-0.44,0.97-0.97v-1.52c0-0.54-0.44-0.97-0.97-0.97H10.51z M38.84,18.89c-0.16,0-0.09,0.12-0.09,0.12 c0.96,2.94,1.54,6.06,1.67,9.29c0,0,0,0.08,0.08,0.08l8.67,0c0,0,0.05,0,0.05-0.06c0-3.36-1.07-6.52-2.5-9.36 c0,0-0.03-0.07-0.11-0.07L38.84,18.89z M6.79,18.89c-0.54,0-0.97,0.44-0.97,0.97v1.25c0,0.54,0.44,0.97,0.97,0.97h12.86 c0.54,0,0.97-0.44,0.97-0.97v-1.25c0-0.54-0.44-0.97-0.97-0.97H6.79z M35.85,18.89h-9.73h-0.01h-0.4h-2.23h-0.41 c-0.54,0-0.97,0.44-0.97,0.97v1.25c0,0.54,0.44,0.97,0.97,0.97h0.41h0.78h0.02h0.26h1.16h0.4h0.29h0.33h0.35h0.12h0.1 c0.18,0,0.33,0.14,0.33,0.32v2.18c0,0.18-0.15,0.32-0.33,0.32h-0.1h-0.12h-0.35h-0.33h-3.18h-0.97h-0.55h-0.15h-0.12h-0.29h-0.95 c-0.54,0-0.97,0.44-0.97,0.97v1.52c0,0.54,0.44,0.97,0.97,0.97h1.24h0.12h0.15h1.52h14.38c0.13,0,0.1-0.2,0.1-0.2 C37.57,25,37,21.93,36.05,19.03C36.01,18.9,35.9,18.89,35.85,18.89C35.85,18.89,35.85,18.89,35.85,18.89"></path> <path class="st0" d="M7.13,37.08c-0.54,0-0.97,0.44-0.97,0.97v1.4c0,0.54,0.44,0.97,0.97,0.97h9.54c0.54,0,0.97-0.44,0.97-0.97 v-1.4c0-0.54-0.44-0.97-0.97-0.97H7.13z M4.45,30.91c-0.54,0-0.97,0.44-0.97,0.97v1.45c0,0.54,0.44,0.97,0.97,0.97H14 c0.54,0,0.97-0.44,0.97-0.97v-1.45c0-0.54-0.44-0.97-0.97-0.97H4.45z M17.6,30.91c-0.54,0-0.97,0.44-0.97,0.97v1.45 c0,0.54,0.44,0.97,0.97,0.97h2.24c0.54,0,0.97-0.44,0.97-0.97v-1.45c0-0.54-0.44-0.97-0.97-0.97H17.6z M40.42,30.97 c-0.13,3.19-0.68,6.49-1.62,9.39c0,0-0.03,0.07,0.05,0.07l7.89,0c0,0,0.06,0,0.08-0.05c1.37-2.81,2.21-6.14,2.4-9.43 c0-0.05-0.04-0.04-0.04-0.04l-8.69,0C40.42,30.91,40.42,30.97,40.42,30.97 M37.66,30.91H25.69h-0.01h-0.32h-0.77h-0.35h-0.29H23.3 c-0.54,0-0.97,0.44-0.97,0.97v1.45c0,0.54,0.44,0.97,0.97,0.97h0.64h0.29h0.35h0.77h0.32h0.01h0.83h0.14h0.35h0.05h0.25 c0.18,0,0.33,0.14,0.33,0.32v2.13c0,0.18-0.15,0.32-0.33,0.32h-0.25h-0.05h-0.35h-0.14h-2.26h-0.95h-0.63h-0.51h-0.71h-0.2h-0.78 c-0.54,0-0.97,0.44-0.97,0.97v1.4c0,0.54,0.44,0.97,0.97,0.97h0.77c0,0,0.01,0,0.01,0h1.42c0,0,0,0,0.01,0l13.24,0 c0,0,0.09,0.01,0.1-0.05c0.98-2.98,1.57-6.14,1.7-9.41C37.72,30.91,37.67,30.91,37.66,30.91L37.66,30.91"></path> <path class="st0" d="M45.07,42.96h-7.26c-0.06,0-0.07,0.04-0.07,0.04c-1.55,3.65-3.42,6.66-6.06,9.54l-0.24,0.26 c-0.05,0.05,0.01,0.04,0.01,0.04c5.47-1.48,10.18-4.83,13.37-9.33l0.26-0.5C45.11,42.96,45.08,42.96,45.07,42.96 C45.07,42.96,45.07,42.96,45.07,42.96 M11.71,42.96c-0.54,0-0.97,0.44-0.97,0.97v1.78c0,0.54,0.44,0.97,0.97,0.97h2.34 c0.54,0,0.97-0.44,0.97-0.97v-1.78c0-0.54-0.44-0.97-0.97-0.97H11.71z M19.82,42.96h-1h-0.09h-0.35h0H17.6 c-0.54,0-0.97,0.44-0.97,0.97v1.78c0,0.54,0.44,0.97,0.97,0.97h0.77h0.35h0.09h0.58h0.42h0.54h5.94h0.24h0.34h0.15h0.28 c0.18,0,0.33,0.14,0.33,0.32v1.74c0,0.18-0.15,0.32-0.33,0.32h-0.28h-0.15h-0.34h-0.24h-3.7h-1.16h-0.2h-0.04h-0.71 c-0.54,0-0.97,0.44-0.97,0.97v1.75c0,0.54,0.44,0.97,0.97,0.97h0.26h0.45h0.04h0.2h1.15h0.01h6.06c0,0,0.14,0,0.2-0.08 c2.58-2.84,4.66-6.09,6.18-9.68c0.02-0.05-0.03-0.05-0.03-0.05L19.82,42.96L19.82,42.96z"></path> <g> <path class="st0" d="M96.29,44.79v-4.61h0.54v4.12h2.03v0.48H96.29z"></path> <path class="st0" d="M99.44,40.81c0.1-0.13,0.21-0.29,0.33-0.47c0.12-0.18,0.21-0.35,0.28-0.48h0.64v0.07 c-0.09,0.14-0.23,0.3-0.41,0.5c-0.18,0.2-0.34,0.35-0.48,0.46h-0.35V40.81z M99.98,44.79h-0.52v-3.45h0.52V44.79z"></path> <path class="st0" d="M103.34,44.33h-0.03c-0.24,0.35-0.6,0.53-1.08,0.53c-0.45,0-0.8-0.15-1.05-0.46 c-0.25-0.31-0.38-0.75-0.38-1.32s0.13-1.01,0.38-1.33c0.25-0.31,0.6-0.47,1.05-0.47c0.47,0,0.83,0.17,1.08,0.51h0.04l-0.02-0.25 l-0.01-0.24v-1.4h0.52v4.9h-0.43L103.34,44.33z M102.29,44.42c0.36,0,0.62-0.1,0.78-0.29c0.16-0.19,0.24-0.51,0.24-0.94v-0.11 c0-0.49-0.08-0.84-0.24-1.05c-0.16-0.21-0.42-0.31-0.78-0.31c-0.31,0-0.54,0.12-0.7,0.36c-0.16,0.24-0.24,0.57-0.24,1.01 c0,0.44,0.08,0.77,0.24,1C101.74,44.31,101.98,44.42,102.29,44.42z"></path> <path class="st0" d="M106.3,44.86c-0.51,0-0.91-0.16-1.21-0.47c-0.3-0.31-0.44-0.74-0.44-1.3c0-0.56,0.14-1,0.41-1.33 c0.27-0.33,0.64-0.49,1.1-0.49c0.43,0,0.77,0.14,1.03,0.43c0.25,0.28,0.38,0.66,0.38,1.13v0.33h-2.38 c0.01,0.41,0.11,0.71,0.31,0.92c0.19,0.21,0.47,0.31,0.82,0.31c0.37,0,0.74-0.08,1.1-0.23v0.47c-0.19,0.08-0.36,0.14-0.52,0.17 C106.73,44.84,106.53,44.86,106.3,44.86z M106.16,41.72c-0.28,0-0.5,0.09-0.66,0.27c-0.16,0.18-0.26,0.43-0.29,0.75h1.81 c0-0.33-0.07-0.58-0.22-0.76C106.64,41.8,106.43,41.72,106.16,41.72z"></path> <path class="st0" d="M109.93,41.28c0.15,0,0.29,0.01,0.41,0.04l-0.07,0.48c-0.14-0.03-0.27-0.05-0.38-0.05 c-0.28,0-0.52,0.11-0.72,0.34c-0.2,0.23-0.3,0.51-0.3,0.85v1.85h-0.52v-3.45h0.43l0.06,0.64h0.03c0.13-0.22,0.28-0.4,0.46-0.52 C109.52,41.34,109.71,41.28,109.93,41.28z"></path> <path class="st0" d="M112.34,44.86c-0.51,0-0.91-0.16-1.21-0.47c-0.3-0.31-0.44-0.74-0.44-1.3c0-0.56,0.14-1,0.41-1.33 c0.27-0.33,0.64-0.49,1.1-0.49c0.43,0,0.77,0.14,1.03,0.43c0.25,0.28,0.38,0.66,0.38,1.13v0.33h-2.38 c0.01,0.41,0.11,0.71,0.31,0.92c0.19,0.21,0.47,0.31,0.82,0.31c0.37,0,0.74-0.08,1.1-0.23v0.47c-0.19,0.08-0.36,0.14-0.52,0.17 C112.78,44.84,112.58,44.86,112.34,44.86z M112.2,41.72c-0.28,0-0.5,0.09-0.66,0.27c-0.16,0.18-0.26,0.43-0.29,0.75h1.81 c0-0.33-0.07-0.58-0.22-0.76C112.69,41.8,112.48,41.72,112.2,41.72z"></path> <path class="st0" d="M116.63,43.85c0,0.32-0.12,0.57-0.36,0.74c-0.24,0.17-0.58,0.26-1.01,0.26c-0.46,0-0.81-0.07-1.07-0.22 v-0.48c0.17,0.08,0.34,0.15,0.53,0.2c0.19,0.05,0.37,0.07,0.55,0.07c0.27,0,0.48-0.04,0.63-0.13c0.15-0.09,0.22-0.22,0.22-0.4 c0-0.13-0.06-0.25-0.17-0.34c-0.12-0.1-0.34-0.21-0.68-0.34c-0.32-0.12-0.55-0.22-0.68-0.31c-0.14-0.09-0.24-0.19-0.3-0.3 s-0.1-0.25-0.1-0.41c0-0.28,0.11-0.5,0.34-0.67c0.23-0.16,0.54-0.24,0.94-0.24c0.37,0,0.73,0.08,1.09,0.23l-0.19,0.43 c-0.35-0.14-0.66-0.21-0.94-0.21c-0.25,0-0.43,0.04-0.56,0.12c-0.13,0.08-0.19,0.19-0.19,0.32c0,0.09,0.02,0.17,0.07,0.24 c0.05,0.07,0.12,0.13,0.23,0.19c0.11,0.06,0.31,0.14,0.61,0.26c0.41,0.15,0.69,0.3,0.83,0.45 C116.56,43.43,116.63,43.62,116.63,43.85z"></path> <path class="st0" d="M120.41,44.86c-0.51,0-0.91-0.16-1.21-0.47c-0.3-0.31-0.44-0.74-0.44-1.3c0-0.56,0.14-1,0.41-1.33 c0.27-0.33,0.64-0.49,1.1-0.49c0.43,0,0.77,0.14,1.03,0.43c0.25,0.28,0.38,0.66,0.38,1.13v0.33h-2.38 c0.01,0.41,0.11,0.71,0.31,0.92c0.19,0.21,0.47,0.31,0.82,0.31c0.37,0,0.74-0.08,1.1-0.23v0.47c-0.19,0.08-0.36,0.14-0.52,0.17 C120.84,44.84,120.64,44.86,120.41,44.86z M120.27,41.72c-0.28,0-0.5,0.09-0.66,0.27c-0.16,0.18-0.26,0.43-0.29,0.75h1.81 c0-0.33-0.07-0.58-0.22-0.76C120.75,41.8,120.54,41.72,120.27,41.72z"></path> <path class="st0" d="M124.83,44.79v-2.23c0-0.28-0.06-0.49-0.19-0.63c-0.13-0.14-0.33-0.21-0.6-0.21c-0.36,0-0.63,0.1-0.79,0.29 s-0.25,0.52-0.25,0.97v1.81h-0.52v-3.45h0.43l0.08,0.47H123c0.11-0.17,0.26-0.3,0.45-0.4c0.19-0.09,0.41-0.14,0.65-0.14 c0.42,0,0.73,0.1,0.94,0.3c0.21,0.2,0.31,0.52,0.31,0.96v2.25H124.83z"></path> <path class="st0" d="M129.01,44.43c0.09,0,0.18-0.01,0.27-0.02c0.09-0.01,0.15-0.03,0.2-0.04v0.4c-0.06,0.03-0.14,0.05-0.25,0.07 s-0.21,0.03-0.3,0.03c-0.67,0-1-0.35-1-1.06v-2.05h-0.49V41.5l0.49-0.22l0.22-0.74h0.3v0.8h1v0.41h-1v2.03 c0,0.21,0.05,0.37,0.15,0.48S128.84,44.43,129.01,44.43z"></path> <path class="st0" d="M131.64,41.28c0.15,0,0.29,0.01,0.41,0.04l-0.07,0.48c-0.14-0.03-0.27-0.05-0.38-0.05 c-0.28,0-0.52,0.11-0.72,0.34c-0.2,0.23-0.3,0.51-0.3,0.85v1.85h-0.52v-3.45h0.43l0.06,0.64h0.03c0.13-0.22,0.28-0.4,0.46-0.52 C131.23,41.34,131.43,41.28,131.64,41.28z"></path> <path class="st0" d="M134.72,44.79l-0.1-0.49h-0.03c-0.17,0.22-0.34,0.36-0.52,0.44c-0.17,0.08-0.38,0.11-0.64,0.11 c-0.34,0-0.61-0.09-0.8-0.26c-0.19-0.18-0.29-0.43-0.29-0.75c0-0.7,0.56-1.06,1.67-1.1l0.59-0.02v-0.21 c0-0.27-0.06-0.47-0.17-0.6c-0.12-0.13-0.3-0.19-0.56-0.19c-0.29,0-0.61,0.09-0.98,0.26l-0.16-0.4c0.17-0.09,0.36-0.16,0.56-0.22 c0.2-0.05,0.41-0.08,0.61-0.08c0.41,0,0.72,0.09,0.92,0.27c0.2,0.18,0.3,0.48,0.3,0.88v2.36H134.72z M133.54,44.43 c0.33,0,0.58-0.09,0.77-0.27c0.19-0.18,0.28-0.43,0.28-0.75V43.1l-0.52,0.02c-0.42,0.01-0.72,0.08-0.9,0.19 c-0.18,0.11-0.28,0.29-0.28,0.53c0,0.19,0.06,0.33,0.17,0.43C133.18,44.38,133.34,44.43,133.54,44.43z"></path> <path class="st0" d="M138.45,44.79v-2.23c0-0.28-0.06-0.49-0.19-0.63c-0.13-0.14-0.33-0.21-0.6-0.21c-0.36,0-0.63,0.1-0.79,0.29 s-0.25,0.52-0.25,0.97v1.81h-0.52v-3.45h0.43l0.08,0.47h0.03c0.11-0.17,0.26-0.3,0.45-0.4c0.19-0.09,0.41-0.14,0.65-0.14 c0.42,0,0.73,0.1,0.94,0.3c0.21,0.2,0.31,0.52,0.31,0.96v2.25H138.45z"></path> <path class="st0" d="M142.17,43.85c0,0.32-0.12,0.57-0.36,0.74c-0.24,0.17-0.58,0.26-1.01,0.26c-0.46,0-0.81-0.07-1.07-0.22 v-0.48c0.17,0.08,0.34,0.15,0.53,0.2c0.19,0.05,0.37,0.07,0.55,0.07c0.27,0,0.48-0.04,0.63-0.13c0.15-0.09,0.22-0.22,0.22-0.4 c0-0.13-0.06-0.25-0.17-0.34c-0.12-0.1-0.34-0.21-0.68-0.34c-0.32-0.12-0.55-0.22-0.68-0.31c-0.14-0.09-0.24-0.19-0.3-0.3 s-0.1-0.25-0.1-0.41c0-0.28,0.11-0.5,0.34-0.67c0.23-0.16,0.54-0.24,0.94-0.24c0.37,0,0.73,0.08,1.09,0.23l-0.19,0.43 c-0.35-0.14-0.66-0.21-0.94-0.21c-0.25,0-0.43,0.04-0.56,0.12c-0.13,0.08-0.19,0.19-0.19,0.32c0,0.09,0.02,0.17,0.07,0.24 c0.05,0.07,0.12,0.13,0.23,0.19c0.11,0.06,0.31,0.14,0.61,0.26c0.41,0.15,0.69,0.3,0.83,0.45 C142.1,43.43,142.17,43.62,142.17,43.85z"></path> <path class="st0" d="M144.47,41.75h-0.88v3.05h-0.52v-3.05h-0.62v-0.24l0.62-0.19v-0.19c0-0.85,0.37-1.27,1.11-1.27 c0.18,0,0.4,0.04,0.64,0.11l-0.14,0.42c-0.2-0.07-0.37-0.1-0.52-0.1c-0.2,0-0.34,0.07-0.44,0.2c-0.09,0.13-0.14,0.34-0.14,0.63 v0.22h0.88V41.75z"></path> <path class="st0" d="M147.98,43.06c0,0.56-0.14,1-0.43,1.32c-0.28,0.32-0.68,0.47-1.18,0.47c-0.31,0-0.58-0.07-0.82-0.22 c-0.24-0.14-0.42-0.35-0.55-0.62c-0.13-0.27-0.2-0.59-0.2-0.95c0-0.56,0.14-1,0.42-1.31c0.28-0.31,0.67-0.47,1.17-0.47 c0.48,0,0.87,0.16,1.15,0.48C147.84,42.08,147.98,42.52,147.98,43.06z M145.35,43.06c0,0.44,0.09,0.78,0.26,1.01 c0.18,0.23,0.44,0.35,0.78,0.35s0.6-0.11,0.78-0.34c0.18-0.23,0.27-0.57,0.27-1.01c0-0.44-0.09-0.77-0.27-1 c-0.18-0.23-0.44-0.34-0.79-0.34c-0.34,0-0.6,0.11-0.77,0.34S145.35,42.62,145.35,43.06z"></path> <path class="st0" d="M150.37,41.28c0.15,0,0.29,0.01,0.41,0.04l-0.07,0.48c-0.14-0.03-0.27-0.05-0.38-0.05 c-0.28,0-0.52,0.11-0.72,0.34c-0.2,0.23-0.3,0.51-0.3,0.85v1.85h-0.52v-3.45h0.43l0.06,0.64h0.03c0.13-0.22,0.28-0.4,0.46-0.52 C149.95,41.34,150.15,41.28,150.37,41.28z"></path> <path class="st0" d="M155.72,44.79v-2.25c0-0.28-0.06-0.48-0.18-0.62c-0.12-0.14-0.3-0.21-0.55-0.21c-0.33,0-0.57,0.09-0.72,0.28 c-0.16,0.19-0.23,0.47-0.23,0.86v1.93h-0.52v-2.25c0-0.28-0.06-0.48-0.18-0.62c-0.12-0.14-0.3-0.21-0.55-0.21 c-0.33,0-0.57,0.1-0.72,0.29c-0.15,0.2-0.23,0.52-0.23,0.97v1.81h-0.52v-3.45h0.43l0.08,0.47h0.03c0.1-0.17,0.24-0.3,0.42-0.39 c0.18-0.09,0.38-0.14,0.6-0.14c0.54,0,0.89,0.2,1.06,0.59h0.03c0.1-0.18,0.25-0.32,0.45-0.43c0.2-0.11,0.42-0.16,0.67-0.16 c0.39,0,0.68,0.1,0.88,0.3c0.19,0.2,0.29,0.52,0.29,0.96v2.25H155.72z"></path> <path class="st0" d="M159.34,44.79l-0.1-0.49h-0.03c-0.17,0.22-0.34,0.36-0.52,0.44c-0.17,0.08-0.38,0.11-0.64,0.11 c-0.34,0-0.61-0.09-0.8-0.26c-0.19-0.18-0.29-0.43-0.29-0.75c0-0.7,0.56-1.06,1.67-1.1l0.59-0.02v-0.21 c0-0.27-0.06-0.47-0.17-0.6c-0.12-0.13-0.3-0.19-0.56-0.19c-0.29,0-0.61,0.09-0.98,0.26l-0.16-0.4c0.17-0.09,0.36-0.16,0.56-0.22 c0.2-0.05,0.41-0.08,0.61-0.08c0.41,0,0.72,0.09,0.92,0.27c0.2,0.18,0.3,0.48,0.3,0.88v2.36H159.34z M158.16,44.43 c0.33,0,0.58-0.09,0.77-0.27c0.19-0.18,0.28-0.43,0.28-0.75V43.1l-0.52,0.02c-0.42,0.01-0.72,0.08-0.9,0.19 c-0.18,0.11-0.28,0.29-0.28,0.53c0,0.19,0.06,0.33,0.17,0.43C157.8,44.38,157.96,44.43,158.16,44.43z"></path> <path class="st0" d="M162.09,44.86c-0.5,0-0.89-0.15-1.16-0.46c-0.27-0.31-0.41-0.74-0.41-1.31c0-0.58,0.14-1.02,0.42-1.34 c0.28-0.31,0.67-0.47,1.19-0.47c0.17,0,0.33,0.02,0.5,0.05c0.17,0.04,0.3,0.08,0.39,0.13l-0.16,0.44 c-0.12-0.05-0.24-0.08-0.38-0.11c-0.14-0.03-0.26-0.05-0.36-0.05c-0.7,0-1.05,0.45-1.05,1.34c0,0.42,0.09,0.75,0.26,0.98 c0.17,0.23,0.42,0.34,0.76,0.34c0.29,0,0.58-0.06,0.89-0.19v0.46C162.73,44.8,162.44,44.86,162.09,44.86z"></path> <path class="st0" d="M163.63,40.41c0-0.12,0.03-0.21,0.09-0.26c0.06-0.06,0.13-0.08,0.22-0.08c0.08,0,0.16,0.03,0.22,0.08 c0.06,0.06,0.09,0.14,0.09,0.26c0,0.12-0.03,0.21-0.09,0.26c-0.06,0.06-0.13,0.09-0.22,0.09c-0.09,0-0.16-0.03-0.22-0.09 C163.66,40.61,163.63,40.52,163.63,40.41z M164.2,44.79h-0.52v-3.45h0.52V44.79z"></path> <path class="st0" d="M168.18,43.06c0,0.56-0.14,1-0.43,1.32c-0.28,0.32-0.68,0.47-1.18,0.47c-0.31,0-0.58-0.07-0.82-0.22 c-0.24-0.14-0.42-0.35-0.55-0.62c-0.13-0.27-0.2-0.59-0.2-0.95c0-0.56,0.14-1,0.42-1.31c0.28-0.31,0.67-0.47,1.17-0.47 c0.48,0,0.87,0.16,1.15,0.48C168.04,42.08,168.18,42.52,168.18,43.06z M165.55,43.06c0,0.44,0.09,0.78,0.26,1.01 c0.18,0.23,0.44,0.35,0.78,0.35s0.6-0.11,0.78-0.34c0.18-0.23,0.27-0.57,0.27-1.01c0-0.44-0.09-0.77-0.27-1 c-0.18-0.23-0.44-0.34-0.79-0.34c-0.34,0-0.6,0.11-0.77,0.34C165.64,42.28,165.55,42.62,165.55,43.06z M166.16,40.81 c0.1-0.13,0.21-0.29,0.33-0.47c0.12-0.18,0.21-0.35,0.28-0.48h0.64v0.07c-0.09,0.14-0.23,0.3-0.41,0.5 c-0.18,0.2-0.34,0.35-0.48,0.46h-0.35V40.81z"></path> <path class="st0" d="M171.36,44.79v-2.23c0-0.28-0.06-0.49-0.19-0.63c-0.13-0.14-0.33-0.21-0.6-0.21c-0.36,0-0.63,0.1-0.79,0.29 s-0.25,0.52-0.25,0.97v1.81H169v-3.45h0.43l0.08,0.47h0.03c0.11-0.17,0.26-0.3,0.45-0.4c0.19-0.09,0.41-0.14,0.65-0.14 c0.42,0,0.73,0.1,0.94,0.3c0.21,0.2,0.31,0.52,0.31,0.96v2.25H171.36z"></path> <path class="st0" d="M176.77,44.33h-0.03c-0.24,0.35-0.6,0.53-1.08,0.53c-0.45,0-0.8-0.15-1.05-0.46 c-0.25-0.31-0.38-0.75-0.38-1.32s0.13-1.01,0.38-1.33c0.25-0.31,0.6-0.47,1.05-0.47c0.47,0,0.83,0.17,1.08,0.51h0.04l-0.02-0.25 l-0.01-0.24v-1.4h0.52v4.9h-0.43L176.77,44.33z M175.73,44.42c0.36,0,0.62-0.1,0.78-0.29c0.16-0.19,0.24-0.51,0.24-0.94v-0.11 c0-0.49-0.08-0.84-0.24-1.05c-0.16-0.21-0.42-0.31-0.78-0.31c-0.31,0-0.54,0.12-0.7,0.36c-0.16,0.24-0.24,0.57-0.24,1.01 c0,0.44,0.08,0.77,0.24,1C175.18,44.31,175.42,44.42,175.73,44.42z"></path> <path class="st0" d="M178.23,40.41c0-0.12,0.03-0.21,0.09-0.26c0.06-0.06,0.13-0.08,0.22-0.08c0.08,0,0.16,0.03,0.22,0.08 c0.06,0.06,0.09,0.14,0.09,0.26c0,0.12-0.03,0.21-0.09,0.26c-0.06,0.06-0.13,0.09-0.22,0.09c-0.09,0-0.16-0.03-0.22-0.09 C178.26,40.61,178.23,40.52,178.23,40.41z M178.8,44.79h-0.52v-3.45h0.52V44.79z"></path> <path class="st0" d="M182.63,41.34v0.33l-0.64,0.08c0.06,0.07,0.11,0.17,0.16,0.29c0.05,0.12,0.07,0.25,0.07,0.4 c0,0.34-0.12,0.61-0.35,0.81c-0.23,0.2-0.55,0.3-0.95,0.3c-0.1,0-0.2-0.01-0.29-0.03c-0.22,0.12-0.33,0.27-0.33,0.44 c0,0.09,0.04,0.16,0.12,0.21c0.08,0.04,0.21,0.07,0.4,0.07h0.61c0.37,0,0.66,0.08,0.86,0.24s0.3,0.39,0.3,0.69 c0,0.38-0.15,0.67-0.46,0.87c-0.31,0.2-0.75,0.3-1.34,0.3c-0.45,0-0.8-0.08-1.04-0.25c-0.24-0.17-0.37-0.41-0.37-0.71 c0-0.21,0.07-0.39,0.2-0.54c0.13-0.15,0.32-0.26,0.57-0.31c-0.09-0.04-0.16-0.1-0.22-0.19s-0.09-0.18-0.09-0.29 c0-0.13,0.03-0.24,0.1-0.33c0.07-0.09,0.17-0.19,0.32-0.27c-0.18-0.07-0.32-0.2-0.44-0.38s-0.17-0.38-0.17-0.6 c0-0.38,0.11-0.67,0.34-0.87c0.23-0.2,0.55-0.31,0.96-0.31c0.18,0,0.34,0.02,0.49,0.06H182.63z M179.88,45.37 c0,0.19,0.08,0.33,0.24,0.43c0.16,0.1,0.38,0.15,0.68,0.15c0.44,0,0.76-0.07,0.98-0.2c0.21-0.13,0.32-0.31,0.32-0.53 c0-0.19-0.06-0.32-0.17-0.39c-0.12-0.07-0.33-0.11-0.65-0.11h-0.63c-0.24,0-0.42,0.06-0.55,0.17 C179.94,45,179.88,45.16,179.88,45.37z M180.16,42.45c0,0.24,0.07,0.42,0.2,0.55c0.14,0.12,0.33,0.19,0.57,0.19 c0.51,0,0.77-0.25,0.77-0.74c0-0.52-0.26-0.78-0.77-0.78c-0.25,0-0.43,0.07-0.57,0.2C180.23,41.99,180.16,42.19,180.16,42.45z"></path> <path class="st0" d="M183.19,40.41c0-0.12,0.03-0.21,0.09-0.26c0.06-0.06,0.13-0.08,0.22-0.08c0.08,0,0.16,0.03,0.22,0.08 c0.06,0.06,0.09,0.14,0.09,0.26c0,0.12-0.03,0.21-0.09,0.26c-0.06,0.06-0.13,0.09-0.22,0.09c-0.09,0-0.16-0.03-0.22-0.09 C183.22,40.61,183.19,40.52,183.19,40.41z M183.76,44.79h-0.52v-3.45h0.52V44.79z"></path> <path class="st0" d="M185.88,44.43c0.09,0,0.18-0.01,0.27-0.02c0.09-0.01,0.15-0.03,0.2-0.04v0.4c-0.06,0.03-0.14,0.05-0.25,0.07 s-0.21,0.03-0.3,0.03c-0.67,0-1-0.35-1-1.06v-2.05h-0.49V41.5l0.49-0.22l0.22-0.74h0.3v0.8h1v0.41h-1v2.03 c0,0.21,0.05,0.37,0.15,0.48S185.71,44.43,185.88,44.43z"></path> <path class="st0" d="M189.06,44.79l-0.1-0.49h-0.03c-0.17,0.22-0.34,0.36-0.52,0.44c-0.17,0.08-0.38,0.11-0.64,0.11 c-0.34,0-0.61-0.09-0.8-0.26c-0.19-0.18-0.29-0.43-0.29-0.75c0-0.7,0.56-1.06,1.67-1.1l0.59-0.02v-0.21 c0-0.27-0.06-0.47-0.17-0.6c-0.12-0.13-0.3-0.19-0.56-0.19c-0.29,0-0.61,0.09-0.98,0.26l-0.16-0.4c0.17-0.09,0.36-0.16,0.56-0.22 c0.2-0.05,0.41-0.08,0.61-0.08c0.41,0,0.72,0.09,0.92,0.27c0.2,0.18,0.3,0.48,0.3,0.88v2.36H189.06z M187.88,44.43 c0.33,0,0.58-0.09,0.77-0.27c0.19-0.18,0.28-0.43,0.28-0.75V43.1l-0.52,0.02c-0.42,0.01-0.72,0.08-0.9,0.19 c-0.18,0.11-0.28,0.29-0.28,0.53c0,0.19,0.06,0.33,0.17,0.43C187.51,44.38,187.67,44.43,187.88,44.43z"></path> <path class="st0" d="M190.95,44.79h-0.52v-4.9h0.52V44.79z"></path> </g> </g> </g> </svg> 