<?xml version="1.0" encoding="UTF-8"?> <svg xmlns="http://www.w3.org/2000/svg" xmlns:xlink="http://www.w3.org/1999/xlink" version="1.1" id="Layer_1" x="0px" y="0px" viewBox="0 0 167.33 106.67" style="enable-background:new 0 0 167.33 106.67;" xml:space="preserve"> <style type="text/css"> .st0{fill:#FFFFFF;} </style> <g> <path class="st0" d="M49.61,40.56c0,1.92,0.21,3.48,0.57,4.62c0.42,1.14,0.93,2.39,1.66,3.74c0.26,0.42,0.36,0.83,0.36,1.19 c0,0.52-0.31,1.04-0.99,1.56l-3.27,2.18c-0.47,0.31-0.93,0.47-1.35,0.47c-0.52,0-1.04-0.26-1.56-0.73 c-0.73-0.78-1.35-1.61-1.87-2.44c-0.52-0.88-1.04-1.87-1.61-3.06c-4.05,4.78-9.14,7.16-15.26,7.16c-4.36,0-7.84-1.25-10.38-3.74 c-2.54-2.49-3.84-5.81-3.84-9.97c0-4.41,1.56-7.99,4.72-10.69s7.37-4.05,12.72-4.05c1.76,0,3.58,0.16,5.5,0.42 c1.92,0.26,3.89,0.67,5.97,1.14v-3.79c0-3.95-0.83-6.7-2.44-8.31c-1.66-1.61-4.46-2.39-8.46-2.39c-1.82,0-3.69,0.21-5.61,0.67 s-3.79,1.04-5.61,1.76c-0.83,0.36-1.45,0.57-1.82,0.67c-0.36,0.1-0.62,0.16-0.83,0.16c-0.73,0-1.09-0.52-1.09-1.61V13 c0-0.83,0.1-1.45,0.36-1.82c0.26-0.36,0.73-0.73,1.45-1.09c1.82-0.93,4-1.71,6.54-2.34c2.54-0.67,5.24-0.99,8.1-0.99 c6.18,0,10.69,1.4,13.6,4.2c2.86,2.8,4.31,7.06,4.31,12.77v16.82H49.61z M28.54,48.45c1.71,0,3.48-0.31,5.35-0.93 c1.87-0.62,3.53-1.76,4.93-3.32c0.83-0.99,1.45-2.08,1.76-3.32c0.31-1.25,0.52-2.75,0.52-4.52v-2.18 c-1.51-0.36-3.11-0.67-4.78-0.88c-1.66-0.21-3.27-0.31-4.88-0.31c-3.48,0-6.02,0.67-7.73,2.08c-1.71,1.4-2.54,3.37-2.54,5.97 c0,2.44,0.62,4.26,1.92,5.5C24.33,47.83,26.15,48.45,28.54,48.45z M70.22,54.06c-0.93,0-1.56-0.16-1.97-0.52 c-0.42-0.31-0.78-1.04-1.09-2.02l-12.2-40.13c-0.31-1.04-0.47-1.71-0.47-2.08c0-0.83,0.42-1.3,1.25-1.3h5.09 c0.99,0,1.66,0.16,2.02,0.52c0.42,0.31,0.73,1.04,1.04,2.02l8.72,34.36l8.1-34.36c0.26-1.04,0.57-1.71,0.99-2.02 c0.42-0.31,1.14-0.52,2.08-0.52h4.15c0.99,0,1.66,0.16,2.08,0.52c0.42,0.31,0.78,1.04,0.99,2.02l8.2,34.78l8.98-34.78 c0.31-1.04,0.67-1.71,1.04-2.02c0.42-0.31,1.09-0.52,2.02-0.52h4.83c0.83,0,1.3,0.42,1.3,1.3c0,0.26-0.05,0.52-0.1,0.83 c-0.05,0.31-0.16,0.73-0.36,1.3l-12.51,40.13c-0.31,1.04-0.67,1.71-1.09,2.02c-0.42,0.31-1.09,0.52-1.97,0.52h-4.46 c-0.99,0-1.66-0.16-2.08-0.52c-0.42-0.36-0.78-1.04-0.99-2.08l-8.05-33.48l-7.99,33.43c-0.26,1.04-0.57,1.71-0.99,2.08 c-0.42,0.36-1.14,0.52-2.08,0.52H70.22z M136.92,55.46c-2.7,0-5.4-0.31-7.99-0.93s-4.62-1.3-5.97-2.08 c-0.83-0.47-1.4-0.99-1.61-1.45c-0.21-0.47-0.31-0.99-0.31-1.45V46.9c0-1.09,0.42-1.61,1.19-1.61c0.31,0,0.62,0.05,0.93,0.16 c0.31,0.1,0.78,0.31,1.3,0.52c1.76,0.78,3.69,1.4,5.71,1.82c2.08,0.42,4.1,0.62,6.18,0.62c3.27,0,5.81-0.57,7.58-1.71 c1.76-1.14,2.7-2.8,2.7-4.93c0-1.45-0.47-2.65-1.4-3.63c-0.93-0.99-2.7-1.87-5.24-2.7l-7.53-2.34c-3.79-1.19-6.59-2.96-8.31-5.29 c-1.71-2.28-2.6-4.83-2.6-7.53c0-2.18,0.47-4.1,1.4-5.76s2.18-3.11,3.74-4.26c1.56-1.19,3.32-2.08,5.4-2.7 c2.08-0.62,4.26-0.88,6.54-0.88c1.14,0,2.34,0.05,3.48,0.21c1.19,0.16,2.28,0.36,3.37,0.57c1.04,0.26,2.02,0.52,2.96,0.83 c0.93,0.31,1.66,0.62,2.18,0.93c0.73,0.42,1.25,0.83,1.56,1.3c0.31,0.42,0.47,0.99,0.47,1.71v2.44c0,1.09-0.42,1.66-1.19,1.66 c-0.42,0-1.09-0.21-1.97-0.62c-2.96-1.35-6.28-2.02-9.97-2.02c-2.96,0-5.29,0.47-6.9,1.45c-1.61,0.99-2.44,2.49-2.44,4.62 c0,1.45,0.52,2.7,1.56,3.69c1.04,0.99,2.96,1.97,5.71,2.86l7.37,2.34c3.74,1.19,6.44,2.86,8.05,4.98s2.39,4.57,2.39,7.27 c0,2.23-0.47,4.26-1.35,6.02c-0.93,1.76-2.18,3.32-3.79,4.57c-1.61,1.3-3.53,2.23-5.76,2.91C142.01,55.1,139.57,55.46,136.92,55.46 z"></path> <path class="st0" d="M146.73,80.69C129.66,93.3,104.84,100,83.51,100c-29.9,0-56.84-11.06-77.19-29.43 c-1.61-1.45-0.16-3.43,1.76-2.28c22.01,12.77,49.16,20.5,77.24,20.5c18.95,0,39.76-3.95,58.92-12.04 C147.1,75.45,149.54,78.61,146.73,80.69z M153.85,72.59c-2.18-2.8-14.43-1.35-19.99-0.67c-1.66,0.21-1.92-1.25-0.42-2.34 c9.76-6.85,25.8-4.88,27.67-2.6c1.87,2.34-0.52,18.38-9.66,26.06c-1.4,1.19-2.75,0.57-2.13-0.99 C151.41,86.92,156.03,75.34,153.85,72.59z"></path> </g> </svg> 