<?xml version="1.0" encoding="UTF-8"?> <svg xmlns="http://www.w3.org/2000/svg" xmlns:xlink="http://www.w3.org/1999/xlink" version="1.1" id="Layer_1" x="0px" y="0px" viewBox="0 0 186.01 80" style="enable-background:new 0 0 186.01 80;" xml:space="preserve"> <style type="text/css"> .st0{fill:#FFFFFF;} </style> <g> <path class="st0" d="M95.29,4.63c6.45-0.22,12.94,0.75,19.02,2.91c9.15,3.21,17.33,9.1,23.31,16.73c2.63,3.35,4.84,7.02,6.57,10.91 c0.31,0.65,0.54,1.38,0.38,2.1c-0.2,1.21-1.26,2.21-2.48,2.33c-1.27,0.19-2.58-0.61-3.03-1.8c-3.44-8.09-9.3-15.11-16.62-19.97 c-4.52-3.02-9.59-5.22-14.89-6.45c-6.83-1.6-14.03-1.6-20.86-0.01c-9.76,2.25-18.69,7.85-25,15.62c-2.67,3.28-4.88,6.93-6.54,10.82 c-0.36,0.9-1.19,1.61-2.15,1.77c-0.93,0.18-1.94-0.14-2.59-0.83c-0.77-0.77-1.02-1.99-0.62-3c4.58-10.82,13.05-19.91,23.48-25.33 C80.04,6.87,87.64,4.89,95.29,4.63L95.29,4.63z"></path> <path class="st0" d="M86.77,37.95c-0.04-0.56,0.49-0.98,1.02-1c0.69-0.02,1.37-0.01,2.06,0c0.48,0.02,1.03,0.33,1.03,0.87 c0.02,6.29-0.01,12.58,0.02,18.87c2.55-2.83,5.12-5.65,7.68-8.48c0.5-0.5,0.9-1.25,1.69-1.31c1.06-0.04,2.11-0.02,3.17-0.02 c0.41-0.04,0.86,0.34,0.72,0.77c-0.17,0.33-0.47,0.57-0.72,0.83c-2.77,2.76-5.54,5.52-8.29,8.29c2.66,3.03,5.28,6.1,7.92,9.14 c0.34,0.43,0.77,0.8,1.05,1.28c0.21,0.37-0.14,0.83-0.54,0.85c-0.88,0.05-1.76,0-2.64,0.02c-0.46-0.01-0.95,0.06-1.37-0.18 c-0.44-0.25-0.7-0.7-1.02-1.08c-2.55-3.21-5.09-6.44-7.65-9.65c-0.03,3.16-0.01,6.32-0.01,9.49c-0.01,0.36,0.06,0.8-0.25,1.07 c-0.51,0.49-1.26,0.32-1.89,0.35c-0.56-0.02-1.22,0.1-1.67-0.31c-0.25-0.2-0.32-0.53-0.31-0.83 C86.77,57.27,86.76,47.61,86.77,37.95L86.77,37.95z"></path> <path class="st0" d="M75.14,46.83c1.28-0.41,2.72-0.49,3.97,0.05c0.44,0.21,0.95,0.65,0.75,1.19c-0.2,0.68-0.37,1.37-0.61,2.04 c-0.18,0.48-0.73,0.66-1.2,0.57c-1.06-0.18-2.09-0.53-3.17-0.49c-0.76-0.02-1.45,0.39-1.97,0.91c-0.83,0.82-1.26,1.95-1.46,3.09 c-0.15,0.82-0.11,1.65-0.12,2.48c0,3.47,0,6.94,0,10.41c0.05,0.57-0.54,0.96-1.06,0.98c-0.71,0.01-1.41,0.02-2.12-0.01 c-0.51-0.03-1.09-0.4-1.02-0.97c0-6.42-0.01-12.85,0-19.27c-0.04-0.64,0.66-0.99,1.22-0.93c0.7,0.05,1.65-0.22,2.1,0.48 c0.34,0.81,0.51,1.69,0.83,2.51C72.27,48.53,73.55,47.36,75.14,46.83L75.14,46.83z"></path> <path class="st0" d="M3.02,47.32c0.2-0.23,0.43-0.47,0.75-0.45c0.96-0.01,1.92-0.03,2.88,0.01c0.49,0.01,0.82,0.44,0.89,0.89 c0.94,3.84,1.87,7.68,2.81,11.51c0.28,1.19,0.61,2.36,0.79,3.56c0.18,1.08,0.22,2.18,0.4,3.27c0.24-1.55,0.46-3.11,0.88-4.62 c1.23-4.58,2.46-9.16,3.68-13.74c0.1-0.52,0.59-0.89,1.11-0.89c1.07-0.03,2.14-0.01,3.21-0.01c0.57-0.03,1.19,0.31,1.32,0.89 c0.92,3.34,1.82,6.68,2.74,10.02c0.55,2.16,1.28,4.29,1.59,6.51c0.09,0.61,0.17,1.22,0.3,1.83c0.34-3.49,1.24-6.88,1.98-10.3 c0.61-2.72,1.21-5.44,1.82-8.16c0.09-0.55,0.67-0.82,1.18-0.8c0.86-0.01,1.73-0.03,2.59,0.01c0.51,0.01,0.81,0.58,0.63,1.04 c-1.73,6.39-3.46,12.79-5.19,19.19c-0.09,0.51-0.54,0.91-1.06,0.92c-1.34,0.04-2.68,0.01-4.02,0.02c-0.48,0.03-0.99-0.23-1.07-0.73 c-1.2-4.4-2.37-8.8-3.56-13.2c-0.43-1.53-0.6-3.12-0.78-4.69c-0.22,1.4-0.33,2.83-0.7,4.2c-1.22,4.53-2.44,9.06-3.66,13.6 c-0.14,0.73-0.98,0.88-1.6,0.83c-1.24-0.02-2.49,0.03-3.73-0.02c-0.44,0-0.78-0.34-0.86-0.76c-1.75-6.37-3.49-12.74-5.24-19.11 C3.03,47.89,3.03,47.6,3.02,47.32L3.02,47.32z"></path> <path class="st0" d="M160,46.89c0.91-0.02,1.82-0.02,2.73,0c0.55,0.01,1.07,0.39,1.25,0.91c1.57,4.1,3.13,8.21,4.7,12.31 c0.33,0.83,0.56,1.7,0.7,2.58c0.65-2.43,1.51-4.8,2.27-7.21c0.84-2.6,1.69-5.2,2.53-7.79c0.12-0.45,0.56-0.76,1.01-0.8 c0.74-0.05,1.49-0.01,2.23-0.03c0.43,0.01,0.95-0.05,1.28,0.3c0.21,0.18,0.17,0.48,0.08,0.72c-2.51,7.15-5.01,14.31-7.51,21.47 c-0.43,1.19-0.77,2.44-1.47,3.51c-1.01,1.63-2.63,2.81-4.43,3.44c-0.63,0.19-1.27,0.62-1.94,0.38c-0.48-0.12-0.66-0.62-0.92-0.98 c-0.18-0.33-0.52-0.64-0.45-1.05c0.03-0.41,0.36-0.74,0.75-0.85c0.76-0.26,1.52-0.55,2.13-1.08c1.49-1.26,2.41-3.12,2.76-5.01 c-0.24-0.84-0.68-1.61-0.99-2.43c-2.39-5.56-4.78-11.12-7.18-16.68c-0.14-0.36-0.36-0.71-0.4-1.1 C159.14,47.09,159.64,46.9,160,46.89L160,46.89z"></path> <path class="st0" d="M49.04,46.53c2.36-0.14,4.83,0.35,6.78,1.74c1.74,1.24,2.93,3.15,3.48,5.2c0.66,2.45,0.65,5.06,0.06,7.52 c-0.56,2.27-1.87,4.4-3.86,5.69c-2.12,1.41-4.78,1.77-7.26,1.47c-2.12-0.26-4.18-1.19-5.65-2.75c-1.73-1.81-2.59-4.31-2.77-6.79 c-0.22-2.74,0.2-5.64,1.73-7.98c1.13-1.76,2.92-3.06,4.92-3.65C47.3,46.72,48.17,46.6,49.04,46.53L49.04,46.53z M48.49,49.58 c-1.31,0.24-2.49,1.05-3.16,2.21c-1.11,1.88-1.23,4.14-1.18,6.27c0.08,1.93,0.39,3.98,1.62,5.54c0.92,1.17,2.42,1.76,3.89,1.74 c1.41,0.05,2.88-0.43,3.84-1.5c1.22-1.33,1.61-3.18,1.78-4.93c0.07-1.71,0.11-3.46-0.34-5.13c-0.35-1.41-1.1-2.83-2.39-3.59 C51.34,49.44,49.85,49.37,48.49,49.58L48.49,49.58z"></path> <path class="st0" d="M124.25,37.68c-0.03-0.49,0.47-0.81,0.91-0.85c0.7-0.04,1.4-0.02,2.11-0.01c0.54-0.01,1.13,0.39,1.06,0.99 c0,9.7,0,19.41,0,29.11c0.04,0.5-0.46,0.89-0.92,0.92c-0.56,0.03-1.12,0.03-1.68-0.01c-0.39-0.02-0.77-0.28-0.91-0.65 c-0.21-0.63-0.32-1.29-0.48-1.93c-0.77,1.05-1.77,1.98-3.02,2.44c-1.77,0.65-3.74,0.66-5.56,0.22c-1.83-0.44-3.42-1.7-4.3-3.35 c-1.38-2.52-1.55-5.49-1.46-8.31c0.05-2.41,0.51-4.94,2.08-6.85c1.18-1.62,3.12-2.55,5.08-2.79c1.82-0.27,3.8,0.04,5.3,1.14 c0.71,0.5,1.28,1.17,1.79,1.88C124.23,45.65,124.24,41.67,124.25,37.68L124.25,37.68z M118.68,49.47 c-1.29,0.08-2.54,0.83-3.12,2.01c-1.13,2.18-1.15,4.73-1.1,7.13c0.09,1.57,0.26,3.19,0.99,4.61c0.49,0.95,1.39,1.71,2.46,1.94 c1.63,0.39,3.54,0.06,4.69-1.22c1.11-1.27,1.48-2.99,1.65-4.62c0.12-1.86,0.12-3.76-0.34-5.58c-0.32-1.22-0.85-2.43-1.82-3.28 C121.17,49.64,119.88,49.33,118.68,49.47L118.68,49.47z"></path> <path class="st0" d="M142.04,46.93c1.87-0.52,3.87-0.55,5.76-0.12c1.75,0.41,3.4,1.39,4.48,2.85c1.14,1.5,1.72,3.35,1.95,5.2 c0.21,1.42,0.15,2.87,0.15,4.3c0,2.59,0,5.18-0.01,7.77c0.03,0.32-0.17,0.6-0.43,0.76c-0.43,0.27-0.97,0.15-1.46,0.18 c-0.54,0-1.26,0.04-1.56-0.52c-0.29-0.67-0.35-1.41-0.53-2.11c-0.73,0.89-1.48,1.8-2.54,2.31c-1.61,0.79-3.49,0.75-5.21,0.41 c-2.1-0.42-4.04-1.66-5.23-3.45c-1.42-2.09-1.93-4.67-1.91-7.16c-0.02-2.43,0.46-4.94,1.81-7 C138.39,48.68,140.12,47.46,142.04,46.93L142.04,46.93z M143.84,49.59c-0.65,0.13-1.28,0.39-1.8,0.8 c-1.05,0.82-1.57,2.12-1.85,3.38c-0.41,2-0.4,4.07-0.19,6.09c0.2,1.49,0.57,3.07,1.66,4.17c0.89,0.93,2.23,1.27,3.48,1.21 c1.35,0.05,2.75-0.45,3.62-1.51c1.09-1.31,1.39-3.06,1.55-4.71c0.1-1.94,0.1-3.92-0.44-5.8c-0.34-1.17-0.97-2.34-2.03-3 C146.66,49.45,145.18,49.38,143.84,49.59L143.84,49.59z"></path> <path class="st0" d="M179.83,62.28c0.63-0.1,1.32-0.11,1.91,0.19c1,0.45,1.72,1.53,1.61,2.65c0.08,1.33-1.04,2.53-2.32,2.74 c-1.44,0.31-2.99-0.74-3.29-2.18C177.37,64.24,178.38,62.61,179.83,62.28L179.83,62.28z M179.68,62.84 c-1.07,0.39-1.74,1.63-1.47,2.74c0.28,1.31,1.8,2.2,3.07,1.72c1.17-0.36,1.91-1.69,1.54-2.87 C182.51,63.11,180.94,62.32,179.68,62.84L179.68,62.84z"></path> <path class="st0" d="M179.33,63.42c0.77,0.04,1.63-0.17,2.32,0.26c0.56,0.42,0.29,1.33-0.34,1.52c0.18,0.48,0.43,0.92,0.66,1.38 c-0.29,0.01-0.58,0.01-0.86,0.02c-0.21-0.42-0.41-0.85-0.61-1.28c-0.12,0-0.25-0.01-0.37-0.01c0,0.43,0,0.85,0,1.28 c-0.27,0-0.54-0.01-0.8-0.01C179.33,65.52,179.32,64.47,179.33,63.42L179.33,63.42z M180.13,63.91c0,0.3,0,0.61,0,0.91 c0.27-0.02,0.54,0,0.8-0.07c0.25-0.1,0.22-0.42,0.15-0.63C180.83,63.87,180.45,63.94,180.13,63.91L180.13,63.91z"></path> </g> </svg> 