<?xml version="1.0" encoding="UTF-8"?> <svg xmlns="http://www.w3.org/2000/svg" id="Vimeo_White" viewBox="0 0 798 237"><defs><style>.cls-1{fill:#fff;}</style></defs><path class="cls-1" d="M182.67,104.27c7.95-6.58,15.18-12.95,22.85-18.74,3.52-2.66,7.69-4.96,11.92-6.05,12.45-3.21,22.98,3.94,25.04,17.01,.79,5,.66,10.35-.17,15.36-3.04,18.39-6.7,36.67-9.74,55.06-.66,3.98-.31,8.37,.66,12.31,1.59,6.47,8.15,9.73,14.15,6.77,5.46-2.7,10.37-6.55,15.38-10.1,.91-.64,1.4-2.24,1.58-3.47,2.11-14.5,4.14-29,6.16-43.51,.18-1.31,.27-2.66,.2-3.99-.21-4.33-2.36-5.69-6.27-3.66-3.53,1.83-6.84,4.09-10.92,6.57-2.87-3.26-5.87-6.66-9.55-10.84,14.03-12.07,27.52-24.17,41.59-35.55,6.37-5.15,15.18-2.97,20.84,3.91,5.89,7.15,8.1,15.53,7.86,24.67-.03,1.27,0,2.53-.88,2.8,5.43-4.79,10.7-9.77,16.32-14.32,14.03-11.35,30.04-17.13,48.19-15.47,13.27,1.22,21.69,10.08,23.14,23.4,.32,2.9,.53,5.82,.91,10.06,3.85-3.83,6.96-6.72,9.84-9.82,6.98-7.51,14.79-13.9,23.98-18.52,8.23-4.14,17.03-5.62,26.15-5.42,15.99,.36,27.09,10.67,26.7,26.72-.29,12.05-2.65,24.07-4.46,36.04-1.51,10.01-3.79,19.91-5.26,29.92-.57,3.87-.47,8.21,4.03,10.42,4.13,2.02,11.71,.92,15.08-2.3,.73-.69,1.34-1.99,1.28-2.95-2.36-34.03,14.66-58.48,39.4-78.81,20.41-16.77,44.09-23.12,70.39-20.86,33.7,2.89,38.26,36.22,24.37,55.45-15.1,20.91-35.32,34.48-59.91,41.74-5.7,1.68-11.49,3.03-17.61,4.63,3.44,4.95,8.01,7.68,13.62,8.56,13.28,2.08,26.29-.03,39.02-3.52,9.76-2.68,19.22-6.45,28.86-9.6,2.84-.93,3.9-2.41,3.55-5.48-4.89-43.34,38.45-90.34,81.85-93.42,9.37-.67,19.15-1.19,28.23,.7,21.73,4.52,35.56,21.57,38.76,45.35,5.63,41.88-19.87,85-59.48,98.8-21.82,7.6-44.14,8.21-64.48-4.67-7.46-4.72-13.01-12.45-19.54-18.91-10.03,4.88-21,10.89-32.47,15.67-22.27,9.29-45.53,13.82-69.75,11.32-14.78-1.53-27.08-7.75-35.53-20.46-.46-.69-.98-1.34-1.5-1.99-.09-.12-.28-.16-.68-.37-4.28,3.13-8.54,6.53-13.07,9.52-12.62,8.33-26.27,13.64-41.68,13.18-14.03-.42-21.81-7.83-23.01-21.8-1.22-14.22,2.84-27.69,5.61-41.39,1.77-8.77,2.74-17.72,3.6-26.63,.39-4.03-.69-8.11-4.91-10.14-4.34-2.08-8.17-.34-11.6,2.28-9.14,7-14.24,17.05-19.66,26.77-9.64,17.27-14.44,35.75-12.88,55.62,.36,4.6,1.44,9.15,2.28,14.27-12.36-.15-24.65-.05-35.44-7.41-6.81-4.65-9.79-11.53-10.79-19.44-1.61-12.79,.74-25.15,3.61-37.56,1.79-7.73,2.59-15.72,3.42-23.64,.47-4.52-.86-8.83-5.45-10.85-4.73-2.07-9.19-.87-12.93,2.58-8.82,8.14-13.85,18.73-18.08,29.59-8.17,20.96-10.21,42.6-5.66,64.74,.1,.47,.01,.97,.01,1.45-21.41,1.73-39.28-4.7-45.17-24.41-5.15,3.94-10.06,8.05-15.31,11.66-12.72,8.76-26.48,14.64-42.32,14.23-14.24-.37-24-9.1-23.77-23.43,.17-10.86,2.23-21.8,4.51-32.48,2.63-12.35,6.43-24.46,9.67-36.68,.51-1.92,1.38-4.08,.93-5.83-.74-2.88-1.75-6.57-3.91-7.94-1.73-1.09-5.54,.28-8.04,1.42-4.86,2.2-7.45,6.31-9.76,11.26-15.02,32.29-35.99,60.26-63.46,82.97-5.95,4.92-13.7,8.06-21.09,10.74-8.54,3.09-16.32-.48-20.92-7.66-4.96-7.74-9.15-16.28-11.96-25.02-6.31-19.63-11.39-39.65-17.38-59.39-1.32-4.35-4.06-8.36-6.63-12.2-2.22-3.32-5.46-4.13-9.12-1.76-3.33,2.16-6.76,4.17-10.55,6.5-2.63-3.38-5.16-6.62-8.04-10.33,4.32-3.85,8.44-7.65,12.7-11.3,8.08-6.94,16.03-14.05,24.43-20.58,3.59-2.79,7.96-5.14,12.34-6.21,10.58-2.58,19.84,2.55,23.33,13.71,3.11,9.95,4.38,20.46,6.68,30.68,3.06,13.61,6.28,27.18,9.54,40.74,.42,1.75,1.35,3.42,2.28,4.99,2.82,4.78,6.55,5.8,10.01,1.57,6.28-7.67,12.11-15.82,17.26-24.29,2.95-4.86,4.92-10.62,6.02-16.23,2.21-11.33-2.78-16.41-14.24-15.3-3.08,.3-6.1,1.21-9.19,1.85,2.43-25.13,31.07-45.61,55.12-39.72,11.08,2.71,16,10.52,18.11,20.87,.36,1.77,.54,3.57,.9,5.98h-.04Zm505.79,68.11c.27,1.98,.38,5.69,1.32,9.19,3.47,12.88,12.57,17.38,24.82,12.16,3.45-1.47,6.76-3.7,9.53-6.24,10.24-9.4,16.28-21.36,19.56-34.69,2.75-11.15,3.42-22.35-.84-33.39-3.06-7.93-7.18-10.12-15.5-8.54-7.49,1.42-13.82,4.95-18.87,10.46-12.77,13.93-19.29,30.48-20.01,51.05h-.01Zm-139.22-5.1c17.9-7.02,32.21-17.23,42.01-33.11,3.76-6.09,3.78-13.52,.53-16.84-3.22-3.29-10.83-3.54-16.64,1.06-5.9,4.67-11.31,10.28-15.82,16.31-6.88,9.19-10.77,19.73-10.07,32.59h-.01Z"></path><path class="cls-1" d="M219.3,56.07c1.12,0,.79,.02,.46,0-7.5-.53-15.05-1.49-18.34-9.54-3.41-8.33-2.21-16.37,3.74-23.38,8.17-9.63,18.54-14.98,31.21-15.67,13.26-.72,23.28,13.08,18.71,25.7-4.89,13.53-19.32,23.16-35.77,22.88h0Z"></path></svg> 